<svg data-v-423bf9ae="" xmlns="http://www.w3.org/2000/svg" viewBox="0 0 461 93" class="iconLeft"><!----><!----><!----><g data-v-423bf9ae="" id="837dba89-7598-4b1a-96ee-a8663069836b" fill="white" transform="matrix(5.571030403879727,0,0,5.571030403879727,98.78429986201391,16.161405563354492)"><path d="M11.31 8.67L11.31 10.50L5.70 10.50L5.70 8.67L7.03 8.67L6.73 7.71L3.86 7.71L3.57 8.67L4.66 8.67L4.66 10.50L0.21 10.50L0.21 8.67L1.16 8.67L3.05 2.52L2.48 2.52L2.48 0.71L7.85 0.71L10.33 8.67L11.31 8.67ZM5.29 3.01L4.38 6.03L6.22 6.03L5.29 3.01ZM16.56 6.66L16.56 6.66L16.56 6.66Q16.55 6.41 16.50 6.15L16.50 6.15L16.50 6.15Q16.45 5.89 16.35 5.68L16.35 5.68L16.35 5.68Q16.25 5.46 16.09 5.33L16.09 5.33L16.09 5.33Q15.92 5.19 15.68 5.19L15.68 5.19L15.68 5.19Q15.37 5.19 15.14 5.35L15.14 5.35L15.14 5.35Q14.91 5.50 14.76 5.75L14.76 5.75L14.76 5.75Q14.60 6.01 14.53 6.33L14.53 6.33L14.53 6.33Q14.45 6.65 14.45 6.99L14.45 6.99L14.45 6.99Q14.45 7.67 14.83 8.15L14.83 8.15L14.83 8.15Q15.22 8.62 15.89 8.64L15.89 8.64L15.89 8.64Q16.45 8.65 16.84 8.44L16.84 8.44L16.84 8.44Q17.23 8.22 17.58 7.84L17.58 7.84L18.82 9.27L18.82 9.27Q18.56 9.53 18.21 9.79L18.21 9.79L18.21 9.79Q17.86 10.05 17.42 10.25L17.42 10.25L17.42 10.25Q16.98 10.44 16.46 10.57L16.46 10.57L16.46 10.57Q15.95 10.70 15.39 10.70L15.39 10.70L15.39 10.70Q14.62 10.70 13.92 10.46L13.92 10.46L13.92 10.46Q13.22 10.23 12.69 9.77L12.69 9.77L12.69 9.77Q12.17 9.30 11.85 8.60L11.85 8.60L11.85 8.60Q11.54 7.90 11.54 6.96L11.54 6.96L11.54 6.96Q11.54 6.03 11.82 5.35L11.82 5.35L11.82 5.35Q12.11 4.68 12.59 4.23L12.59 4.23L12.59 4.23Q13.06 3.79 13.69 3.58L13.69 3.58L13.69 3.58Q14.31 3.37 14.98 3.37L14.98 3.37L14.98 3.37Q15.33 3.37 15.62 3.46L15.62 3.46L15.62 3.46Q15.90 3.54 16.12 3.67L16.12 3.67L16.12 3.67Q16.34 3.79 16.49 3.93L16.49 3.93L16.49 3.93Q16.65 4.07 16.73 4.17L16.73 4.17L16.97 3.50L18.62 3.50L18.62 6.66L16.56 6.66ZM23.70 8.67L23.70 10.50L19.31 10.50L19.31 8.67L19.89 8.67L19.89 1.82L19.31 1.82L19.31 0L22.69 0L22.69 4.37L22.69 4.37Q22.75 4.27 22.96 4.09L22.96 4.09L22.96 4.09Q23.17 3.91 23.47 3.72L23.47 3.72L23.47 3.72Q23.77 3.53 24.14 3.39L24.14 3.39L24.14 3.39Q24.51 3.25 24.89 3.25L24.89 3.25L24.89 3.25Q25.70 3.25 26.19 3.52L26.19 3.52L26.19 3.52Q26.67 3.79 26.93 4.23L26.93 4.23L26.93 4.23Q27.19 4.68 27.27 5.23L27.27 5.23L27.27 5.23Q27.34 5.78 27.34 6.33L27.34 6.33L27.34 8.67L28 8.67L28 10.50L24.40 10.50L24.40 6.69L24.40 6.69Q24.40 6.51 24.39 6.29L24.39 6.29L24.39 6.29Q24.37 6.06 24.30 5.87L24.30 5.87L24.30 5.87Q24.22 5.67 24.05 5.53L24.05 5.53L24.05 5.53Q23.88 5.39 23.58 5.39L23.58 5.39L23.58 5.39Q23.31 5.39 23.13 5.51L23.13 5.51L23.13 5.51Q22.96 5.63 22.86 5.82L22.86 5.82L22.86 5.82Q22.76 6.01 22.73 6.24L22.73 6.24L22.73 6.24Q22.69 6.47 22.69 6.69L22.69 6.69L22.69 8.67L23.70 8.67ZM32.48 8.67L32.48 10.50L28.56 10.50L28.56 8.67L29.15 8.67L29.15 5.32L28.56 5.32L28.56 3.50L31.81 3.50L31.81 8.67L32.48 8.67ZM28.95 1.46L28.95 1.46L28.95 1.46Q28.95 1.22 29.05 0.97L29.05 0.97L29.05 0.97Q29.15 0.71 29.34 0.50L29.34 0.50L29.34 0.50Q29.53 0.29 29.81 0.16L29.81 0.16L29.81 0.16Q30.10 0.03 30.46 0.03L30.46 0.03L30.46 0.03Q30.83 0.03 31.12 0.16L31.12 0.16L31.12 0.16Q31.40 0.29 31.60 0.50L31.60 0.50L31.60 0.50Q31.79 0.71 31.90 0.97L31.90 0.97L31.90 0.97Q32.00 1.22 32.00 1.46L32.00 1.46L32.00 1.46Q32.00 2.04 31.61 2.46L31.61 2.46L31.61 2.46Q31.22 2.87 30.46 2.87L30.46 2.87L30.46 2.87Q30.13 2.87 29.86 2.74L29.86 2.74L29.86 2.74Q29.58 2.62 29.38 2.41L29.38 2.41L29.38 2.41Q29.18 2.21 29.06 1.96L29.06 1.96L29.06 1.96Q28.95 1.71 28.95 1.46ZM37.27 8.67L37.27 10.50L33.18 10.50L33.18 8.67L33.78 8.67L33.78 1.81L33.19 1.81L33.19 0L36.44 0L36.44 8.67L37.27 8.67ZM41.92 8.67L41.92 10.50L37.83 10.50L37.83 8.67L38.43 8.67L38.43 1.81L37.84 1.81L37.84 0L41.09 0L41.09 8.67L41.92 8.67ZM48.33 8.18L49.50 9.53L49.50 9.53Q48.72 10.21 47.85 10.48L47.85 10.48L47.85 10.48Q46.98 10.75 45.89 10.75L45.89 10.75L45.89 10.75Q45.23 10.75 44.58 10.54L44.58 10.54L44.58 10.54Q43.92 10.32 43.39 9.86L43.39 9.86L43.39 9.86Q42.87 9.41 42.53 8.69L42.53 8.69L42.53 8.69Q42.20 7.97 42.20 6.96L42.20 6.96L42.20 6.96Q42.20 6.10 42.49 5.42L42.49 5.42L42.49 5.42Q42.78 4.75 43.29 4.27L43.29 4.27L43.29 4.27Q43.79 3.79 44.48 3.55L44.48 3.55L44.48 3.55Q45.16 3.30 45.96 3.30L45.96 3.30L45.96 3.30Q46.59 3.30 47.13 3.46L47.13 3.46L47.13 3.46Q47.67 3.61 48.10 3.88L48.10 3.88L48.10 3.88Q48.54 4.14 48.85 4.52L48.85 4.52L48.85 4.52Q49.15 4.90 49.31 5.33L49.31 5.33L49.31 5.33Q49.36 5.52 49.42 5.80L49.42 5.80L49.42 5.80Q49.48 6.08 49.50 6.40L49.50 6.40L49.50 6.40Q49.52 6.72 49.48 7.06L49.48 7.06L49.48 7.06Q49.45 7.41 49.34 7.70L49.34 7.70L44.93 7.70L44.93 7.70Q44.95 7.84 45.02 8.04L45.02 8.04L45.02 8.04Q45.08 8.23 45.23 8.41L45.23 8.41L45.23 8.41Q45.39 8.60 45.65 8.72L45.65 8.72L45.65 8.72Q45.92 8.85 46.37 8.85L46.37 8.85L46.37 8.85Q46.55 8.85 46.77 8.83L46.77 8.83L46.77 8.83Q46.98 8.82 47.24 8.75L47.24 8.75L47.24 8.75Q47.49 8.68 47.77 8.55L47.77 8.55L47.77 8.55Q48.05 8.41 48.33 8.18L48.33 8.18ZM46.05 5.19L46.05 5.19L46.05 5.19Q45.72 5.19 45.52 5.32L45.52 5.32L45.52 5.32Q45.32 5.45 45.20 5.62L45.20 5.62L45.20 5.62Q45.08 5.80 45.03 5.99L45.03 5.99L45.03 5.99Q44.98 6.19 44.97 6.31L44.97 6.31L47.08 6.31L47.08 6.31Q47.08 6.12 47.04 5.92L47.04 5.92L47.04 5.92Q47.00 5.71 46.89 5.55L46.89 5.55L46.89 5.55Q46.79 5.39 46.58 5.29L46.58 5.29L46.58 5.29Q46.38 5.19 46.05 5.19ZM50.81 5.71L50.22 4.09L50.22 4.09Q50.43 3.96 50.75 3.79L50.75 3.79L50.75 3.79Q51.07 3.63 51.47 3.46L51.47 3.46L51.47 3.46Q51.87 3.30 52.32 3.20L52.32 3.20L52.32 3.20Q52.78 3.09 53.27 3.09L53.27 3.09L53.27 3.09Q53.90 3.09 54.57 3.23L54.57 3.23L54.57 3.23Q55.24 3.36 55.80 3.69L55.80 3.69L55.80 3.69Q56.35 4.02 56.71 4.58L56.71 4.58L56.71 4.58Q57.06 5.14 57.06 5.98L57.06 5.98L57.06 8.71L57.90 8.71L57.90 10.50L54.91 10.50L54.57 9.87L54.57 9.87Q54.38 10.14 54.13 10.31L54.13 10.31L54.13 10.31Q53.89 10.49 53.63 10.58L53.63 10.58L53.63 10.58Q53.37 10.68 53.12 10.72L53.12 10.72L53.12 10.72Q52.86 10.77 52.68 10.77L52.68 10.77L52.68 10.77Q52.18 10.77 51.69 10.63L51.69 10.63L51.69 10.63Q51.20 10.49 50.81 10.21L50.81 10.21L50.81 10.21Q50.41 9.93 50.17 9.48L50.17 9.48L50.17 9.48Q49.92 9.04 49.92 8.43L49.92 8.43L49.92 8.43Q49.92 7.84 50.15 7.36L50.15 7.36L50.15 7.36Q50.39 6.89 50.78 6.55L50.78 6.55L50.78 6.55Q51.18 6.22 51.72 6.03L51.72 6.03L51.72 6.03Q52.25 5.85 52.84 5.85L52.84 5.85L52.84 5.85Q53.14 5.85 53.39 5.92L53.39 5.92L53.39 5.92Q53.63 5.98 53.81 6.06L53.81 6.06L53.81 6.06Q53.98 6.15 54.09 6.23L54.09 6.23L54.09 6.23Q54.19 6.31 54.22 6.34L54.22 6.34L54.22 5.85L54.22 5.85Q54.22 5.38 53.84 5.22L53.84 5.22L53.84 5.22Q53.47 5.07 52.89 5.07L52.89 5.07L52.89 5.07Q52.26 5.07 51.74 5.28L51.74 5.28L51.74 5.28Q51.21 5.49 50.81 5.71L50.81 5.71ZM53.33 8.95L53.33 8.95L53.33 8.95Q53.65 8.95 53.89 8.79L53.89 8.79L53.89 8.79Q54.12 8.64 54.22 8.48L54.22 8.48L54.22 7.95L54.22 7.95Q54.21 7.92 54.16 7.86L54.16 7.86L54.16 7.86Q54.11 7.80 54.01 7.73L54.01 7.73L54.01 7.73Q53.91 7.66 53.77 7.60L53.77 7.60L53.77 7.60Q53.62 7.55 53.40 7.55L53.40 7.55L53.40 7.55Q52.98 7.55 52.78 7.76L52.78 7.76L52.78 7.76Q52.58 7.97 52.58 8.29L52.58 8.29L52.58 8.29Q52.58 8.58 52.79 8.76L52.79 8.76L52.79 8.76Q53.00 8.95 53.33 8.95ZM60.07 10.50L58.32 10.50L58.32 7.98L60.20 7.98L60.20 7.98Q60.20 8.26 60.37 8.44L60.37 8.44L60.37 8.44Q60.55 8.62 60.79 8.73L60.79 8.73L60.79 8.73Q61.03 8.83 61.28 8.88L61.28 8.88L61.28 8.88Q61.53 8.92 61.68 8.92L61.68 8.92L61.68 8.92Q61.89 8.92 62.10 8.83L62.10 8.83L62.10 8.83Q62.30 8.74 62.30 8.44L62.30 8.44L62.30 8.44Q62.30 8.29 62.12 8.18L62.12 8.18L62.12 8.18Q61.94 8.08 61.65 7.99L61.65 7.99L61.65 7.99Q61.36 7.91 60.99 7.82L60.99 7.82L60.99 7.82Q60.62 7.73 60.24 7.60L60.24 7.60L60.24 7.60Q59.88 7.48 59.55 7.29L59.55 7.29L59.55 7.29Q59.22 7.11 58.95 6.85L58.95 6.85L58.95 6.85Q58.69 6.58 58.53 6.22L58.53 6.22L58.53 6.22Q58.38 5.85 58.38 5.36L58.38 5.36L58.38 5.36Q58.38 4.83 58.62 4.45L58.62 4.45L58.62 4.45Q58.87 4.06 59.24 3.81L59.24 3.81L59.24 3.81Q59.61 3.57 60.04 3.45L60.04 3.45L60.04 3.45Q60.47 3.33 60.84 3.33L60.84 3.33L60.84 3.33Q61.56 3.33 62.13 3.65L62.13 3.65L62.13 3.65Q62.71 3.98 62.93 4.42L62.93 4.42L63.04 3.50L64.76 3.50L64.76 6.02L62.94 6.02L62.94 6.02Q62.94 5.80 62.82 5.61L62.82 5.61L62.82 5.61Q62.69 5.42 62.49 5.27L62.49 5.27L62.49 5.27Q62.29 5.12 62.03 5.04L62.03 5.04L62.03 5.04Q61.78 4.96 61.52 4.96L61.52 4.96L61.52 4.96Q61.29 4.96 61.13 5.08L61.13 5.08L61.13 5.08Q60.97 5.19 60.97 5.46L60.97 5.46L60.97 5.46Q60.97 5.61 61.11 5.72L61.11 5.72L61.11 5.72Q61.25 5.82 61.49 5.92L61.49 5.92L61.49 5.92Q61.74 6.02 62.05 6.12L62.05 6.12L62.05 6.12Q62.36 6.22 62.69 6.33L62.69 6.33L62.69 6.33Q63.08 6.47 63.49 6.63L63.49 6.63L63.49 6.63Q63.90 6.79 64.22 7.04L64.22 7.04L64.22 7.04Q64.54 7.28 64.74 7.65L64.74 7.65L64.74 7.65Q64.95 8.02 64.95 8.57L64.95 8.57L64.95 8.57Q64.95 9.06 64.73 9.45L64.73 9.45L64.73 9.45Q64.51 9.84 64.15 10.12L64.15 10.12L64.15 10.12Q63.80 10.39 63.32 10.53L63.32 10.53L63.32 10.53Q62.85 10.67 62.34 10.67L62.34 10.67L62.34 10.67Q61.59 10.67 61.02 10.36L61.02 10.36L61.02 10.36Q60.45 10.05 60.20 9.65L60.20 9.65L60.07 10.50Z"></path></g><!----><g data-v-423bf9ae="" id="0b5516ed-d091-4c04-a45d-a3a47dbd7c52" transform="matrix(1.0128222995334202,0,0,1.0128222995334202,-10.112115660286022,-4.218118498473956)" stroke="none" fill="white"><path d="M50 75.252L28.134 62.628V37.379L50 24.755l21.866 12.624v25.249l-.25.144L50 75.252zM29.134 62.05L50 74.098 70.866 62.05V37.956L50 25.909 29.134 37.956V62.05z"></path><path d="M50.042 50.57L28.385 38.11l.499-.867 21.158 12.173 21.074-12.173.5.866z"></path><path d="M49.5 49.98h1v44.982h-1z"></path><path d="M50 95.577L10.529 72.789V27.211L50 4.423l39.471 22.789V72.79l-.25.144L50 95.577zM11.529 72.211L50 94.423l38.471-22.212V27.789L50 5.577 11.529 27.789v44.422z"></path><path d="M50.077 50.558L10.779 27.95l.499-.867 38.798 22.32 38.645-22.32.5.866zM10.78 72.016l17.604-10.11.498.868-17.604 10.11zM71.116 62.778l.498-.867 17.603 10.107-.498.867zM49.5 5h1v20.33h-1z"></path></g><!----></svg>